<?xml version="1.0" standalone="no"?>
<!DOCTYPE svg PUBLIC "-//W3C//DTD SVG 20010904//EN"
 "http://www.w3.org/TR/2001/REC-SVG-20010904/DTD/svg10.dtd">
<svg version="1.0" xmlns="http://www.w3.org/2000/svg"
 width="30.000000pt" height="30.000000pt" viewBox="0 0 700.000000 700.000000"
 preserveAspectRatio="xMidYMid meet">

<g transform="translate(0.000000,700.000000) scale(0.100000,-0.100000)"
fill="#ec008c" stroke="none">
<path d="M105 6981 c-48 -22 -69 -44 -90 -94 -13 -32 -15 -394 -15 -3389 0
-3232 1 -3354 19 -3393 22 -48 44 -69 94 -90 32 -13 394 -15 3389 -15 3232 0
3354 1 3393 19 48 22 69 44 90 94 13 32 15 394 15 3387 0 2993 -2 3355 -15
3387 -21 50 -42 72 -90 94 -39 18 -161 19 -3395 19 -3234 0 -3356 -1 -3395
-19z m3424 -709 c58 -47 72 -74 82 -153 5 -41 23 -171 39 -289 36 -267 46
-405 31 -444 l-12 -29 -85 6 c-107 6 -186 42 -216 97 -17 31 -18 48 -13 160 5
92 2 153 -10 230 -39 255 -10 435 75 462 24 8 71 -10 109 -40z m-1172 -482
c99 -44 189 -120 297 -250 39 -47 104 -121 145 -164 82 -88 110 -141 111 -202
0 -85 -51 -175 -107 -189 -50 -12 -122 37 -234 156 -57 61 -161 167 -231 236
-145 142 -178 194 -178 280 0 133 80 187 197 133z m2652 -16 c79 -100 -90
-331 -386 -527 -73 -48 -160 -110 -192 -137 -138 -115 -205 -137 -256 -82 -34
35 -88 149 -88 184 0 44 50 103 157 185 55 43 148 116 206 163 232 190 326
238 467 239 66 1 73 -1 92 -25z m-1370 -916 c69 -68 180 -168 246 -224 178
-149 164 -111 160 -447 -3 -241 -11 -348 -27 -362 -1 -1 -202 -4 -444 -6 -430
-4 -442 -3 -464 16 -48 43 -50 57 -50 343 l0 270 39 58 c22 33 67 90 100 127
34 37 95 113 136 167 87 115 147 180 164 180 7 0 70 -55 140 -122z m-1608
-311 c97 -26 217 -51 265 -57 192 -24 234 -44 234 -113 0 -36 -6 -47 -50 -88
-39 -38 -64 -53 -120 -70 -63 -19 -88 -21 -213 -17 -117 4 -172 12 -307 43
-205 46 -257 66 -300 110 -30 31 -35 43 -38 98 -4 56 -1 67 19 91 40 45 89 57
219 52 96 -3 145 -12 291 -49z m2834 -156 c44 -11 141 -40 215 -66 74 -25 190
-59 258 -75 145 -35 179 -51 188 -87 10 -39 -14 -73 -71 -102 -47 -24 -58 -26
-190 -25 -154 1 -219 14 -465 95 -183 60 -250 111 -250 191 0 30 25 67 54 78
38 16 178 11 261 -9z m-2051 -737 c57 -57 6 -176 -120 -280 -26 -21 -114 -102
-195 -180 -210 -201 -306 -259 -449 -271 -55 -5 -74 -2 -95 11 -56 37 -23 144
90 291 76 99 100 120 285 245 258 176 305 199 407 200 43 0 66 -5 77 -16z
m1601 -37 c58 -29 140 -86 221 -154 39 -33 123 -92 186 -131 180 -112 235
-184 226 -298 -5 -64 -34 -100 -86 -110 -89 -17 -253 56 -406 181 -56 44 -135
106 -176 137 -138 102 -180 169 -165 267 20 130 86 166 200 108z m-797 -183
c43 -28 52 -70 52 -236 0 -286 -34 -499 -100 -634 -48 -99 -119 -119 -181 -52
-57 60 -85 240 -76 488 5 151 19 224 61 316 55 120 161 172 244 118z m942
-1416 l0 -232 28 27 c48 46 118 70 207 71 178 2 273 -73 320 -249 18 -70 22
-338 5 -424 -35 -185 -140 -275 -320 -275 -89 0 -136 14 -195 60 l-45 34 0
-45 0 -46 -92 3 -93 3 -3 653 -2 652 95 0 95 0 0 -232z m-3075 -152 c51 -13
115 -43 150 -70 19 -14 18 -17 -39 -75 l-59 -60 -47 24 c-59 30 -161 49 -219
40 -86 -13 -131 -52 -131 -113 0 -76 36 -97 202 -112 138 -13 201 -30 256 -70
55 -39 84 -98 89 -180 16 -218 -184 -346 -485 -311 -102 12 -204 52 -267 104
l-29 25 60 62 60 62 50 -31 c66 -42 133 -61 218 -61 132 0 206 41 206 114 0
87 -38 109 -221 126 -63 5 -136 17 -161 26 -61 20 -122 74 -143 126 -22 55
-22 162 0 214 35 84 133 154 244 175 58 10 201 3 266 -15z m885 -1 c108 -38
203 -146 233 -267 9 -35 17 -103 18 -153 l2 -90 -302 -3 -303 -2 7 -43 c3 -23
18 -67 33 -97 23 -45 36 -59 81 -82 92 -48 211 -37 296 28 l46 35 59 -52 c33
-29 60 -55 60 -59 0 -15 -91 -82 -145 -106 -166 -76 -400 -42 -506 73 -129
140 -156 438 -58 640 45 93 146 171 250 193 58 12 173 5 229 -15z m1026 -10
c29 -14 66 -41 83 -61 l31 -34 54 44 c112 91 281 109 409 44 56 -28 113 -92
139 -156 22 -56 23 -66 23 -402 l0 -345 -92 -3 -92 -3 -3 318 c-3 305 -4 320
-25 363 -63 127 -261 125 -331 -4 -15 -27 -17 -72 -20 -354 l-3 -323 -92 3
-92 3 -5 325 c-5 305 -6 327 -26 360 -66 113 -246 115 -315 3 -24 -37 -24 -43
-29 -363 l-5 -325 -92 -3 -93 -3 0 471 0 470 90 0 90 0 0 -46 0 -45 33 24
c107 80 251 97 363 42z m2429 10 c110 -36 190 -120 228 -239 18 -60 22 -94 22
-216 0 -122 -4 -156 -22 -216 -54 -170 -183 -259 -373 -258 -192 2 -325 112
-365 301 -30 141 -13 358 35 453 48 94 145 167 250 190 59 12 163 5 225 -15z"/>
<path d="M4703 1711 c-81 -21 -118 -77 -135 -207 -14 -105 0 -252 31 -312 52
-101 206 -119 284 -32 44 48 57 106 57 253 -1 128 -12 188 -43 234 -36 54
-122 82 -194 64z"/>
<path d="M2170 1718 c-76 -21 -130 -90 -145 -185 l-7 -43 206 0 206 0 0 28 c0
86 -67 179 -145 201 -47 13 -68 13 -115 -1z"/>
<path d="M5665 1715 c-5 -2 -22 -6 -37 -9 -39 -9 -89 -55 -110 -103 -42 -94
-32 -344 15 -414 67 -98 204 -112 286 -30 52 52 66 109 66 256 -1 168 -30 242
-110 283 -23 11 -95 23 -110 17z"/>
</g>
</svg>
